PathFileType	4	(X/Y/Z)	C:/Users/opensim2020/Desktop/walking_exp_matlab/subject02_walking10_straight_01.trc	
DataRate	CameraRate	NumFrames	NumMarkers	Units	OrigDataRate	OrigDataStartFrame	OrigNumFrames	
100.00	100.00	4	43	mm	100.00	736	328	
Frame#	Time	LFHD			RFHD			LBHD			RBHD			C7			T10			CLAV			STRN			RBAK			LSHO			LUPA			LELB			LFRM			LWRA			LWRB			LFIN			RSHO			RUPA			RELB			RFRM			RWRA			RWRB			RFIN			LASI			RASI			LPSI			RPSI			LTHI			LKNE			LTIB			LANK			LHEE			LTOE			RTHI			RKNE			RTIB			RANK			RHEE			RTOE			*39			*40			*41			*42			
		X1	Y1	Z1	X2	Y2	Z2	X3	Y3	Z3	X4	Y4	Z4	X5	Y5	Z5	X6	Y6	Z6	X7	Y7	Z7	X8	Y8	Z8	X9	Y9	Z9	X10	Y10	Z10	X11	Y11	Z11	X12	Y12	Z12	X13	Y13	Z13	X14	Y14	Z14	X15	Y15	Z15	X16	Y16	Z16	X17	Y17	Z17	X18	Y18	Z18	X19	Y19	Z19	X20	Y20	Z20	X21	Y21	Z21	X22	Y22	Z22	X23	Y23	Z23	X24	Y24	Z24	X25	Y25	Z25	X26	Y26	Z26	X27	Y27	Z27	X28	Y28	Z28	X29	Y29	Z29	X30	Y30	Z30	X31	Y31	Z31	X32	Y32	Z32	X33	Y33	Z33	X34	Y34	Z34	X35	Y35	Z35	X36	Y36	Z36	X37	Y37	Z37	X38	Y38	Z38	X39	Y39	Z39	X40	Y40	Z40	X41	Y41	Z41	X42	Y42	Z42	X43	Y43	Z43	

288	2.870	1400.38684	531.90466	1762.04346	1541.23291	559.87183	1748.57764	1407.34277	442.85245	1640.93518	1547.70544	459.15366	1621.04688	1479.08337	434.97412	1523.62573	1478.55359	387.46399	1249.55066	1454.06616	577.00452	1461.48413	1460.75671	633.58453	1288.82397	1547.31482	389.25970	1351.77869	1290.95325	493.03207	1497.87866	1204.50647	478.32297	1298.48047	1186.33386	486.04691	1158.22827	1169.79065	513.89050	1029.08179	1194.02612	590.86224	914.36713	1163.76660	542.67047	909.70081	1155.68494	572.71027	850.92340	1656.06055	538.41229	1495.74426	1741.47778	522.74353	1303.27698	1753.26965	538.94110	1156.03894	1766.90100	577.61835	1041.35938	1738.36658	632.94415	919.54810	1775.40613	590.17847	911.68384	1772.15918	632.56342	852.25989	1332.40723	633.30188	996.07214	1589.81458	621.00305	972.62860	1405.97754	418.55048	1035.18298	1520.35852	407.59491	1027.54175	1281.95471	591.92706	684.52142	1318.24353	567.59088	481.27893	1327.81506	517.28009	291.62527	1373.11780	526.89996	71.01425	1427.18005	493.62085	44.33377	1352.40674	681.60583	38.38570	1674.67261	554.77374	671.16943	1669.79602	565.81305	472.84180	1666.13232	422.15964	359.19275	1630.52356	290.97232	219.12207	1565.11023	244.36018	191.61717	1672.77808	352.52771	74.80932	1505.81763	425.97183	1782.00989	-3360.26440	2845.18066	1033.97815						 
289	2.880	1399.13757	539.53772	1762.51099	1539.94434	567.41174	1749.06860	1406.09607	450.45914	1641.36072	1546.44836	466.66751	1621.56653	1477.56250	442.33609	1524.27832	1476.98413	393.92609	1250.45422	1452.84827	584.14764	1461.80908	1459.44019	640.18420	1288.89587	1545.98340	396.34378	1352.69568	1289.76428	500.84293	1498.74426	1202.99048	487.67105	1299.33301	1184.14368	496.66110	1159.26013	1167.77844	527.06537	1030.74084	1192.48206	606.12823	917.53052	1162.01636	558.16241	911.78143	1153.95630	589.54462	853.77759	1654.89941	546.11462	1496.26587	1740.25049	529.57611	1303.82776	1752.06995	544.40759	1156.57288	1765.82678	582.36859	1041.67017	1737.74048	637.05859	919.50427	1774.63501	594.06256	911.89545	1771.68713	636.17273	852.30011	1330.93347	638.48322	996.99634	1588.08887	627.47418	974.18439	1405.80139	424.38321	1035.46985	1520.26208	414.11581	1028.35669	1281.22949	595.37738	684.35547	1318.02710	569.60834	481.17093	1327.65967	518.38751	291.73099	1373.25708	527.02045	71.08045	1427.36011	493.62186	44.24293	1352.34229	681.74268	38.27916	1673.94519	566.68884	672.44019	1668.24341	579.86359	474.27646	1665.25903	437.83051	358.44186	1630.83838	309.25546	215.82646	1566.20679	262.69809	186.18825	1675.91528	375.14108	74.88079	1504.42236	433.52762	1782.64868	-3360.25317	2845.17407	1034.29211						 
290	2.890	1397.99768	547.23578	1762.99365	1538.80554	575.00653	1749.49402	1404.71960	457.92874	1641.74414	1545.28455	474.20328	1622.12390	1476.59351	449.84384	1525.09668	1475.70044	400.58139	1251.36829	1451.65881	591.28943	1462.14685	1458.08704	646.83533	1289.02637	1544.79797	403.26035	1353.61963	1288.62549	508.50540	1499.53430	1201.33179	496.74802	1300.26001	1181.85120	507.27292	1160.30774	1165.80029	540.16730	1032.21277	1191.09888	621.21320	920.81299	1160.38306	573.53314	913.96802	1152.31665	606.41010	856.82294	1653.40320	553.52985	1496.56006	1739.10901	536.26599	1304.35840	1750.95276	549.85437	1157.08777	1765.15283	587.13531	1042.01746	1736.99426	640.93207	919.32172	1774.07288	598.20404	912.23486	1771.14221	639.73755	852.21997	1329.40869	643.50122	997.95477	1586.15125	633.98273	975.74603	1405.76538	429.95428	1035.62524	1520.54639	420.48212	1029.34058	1281.15332	597.92126	684.08423	1317.76794	571.61768	481.02982	1327.64514	519.43915	291.93130	1373.36755	527.00702	71.25529	1427.40076	493.67374	44.32580	1352.26208	681.86932	38.19069	1673.10315	577.91016	673.42792	1666.80627	593.97125	475.69058	1664.56323	453.81720	357.29251	1631.50488	328.14893	211.91045	1567.50940	281.69305	179.94698	1678.72375	398.72955	74.55946	1503.24121	441.15814	1783.20618	-3357.43677	2845.80566	1034.35132						 
291	2.900	1396.93274	555.09583	1763.48926	1537.74280	582.67865	1749.89014	1403.56604	465.56934	1642.34509	1544.21155	481.69528	1622.65552	1475.53638	457.21616	1525.91748	1474.66418	407.11325	1252.22168	1450.58191	598.32684	1462.47852	1456.65955	653.46094	1289.17603	1543.87646	410.26251	1354.66235	1287.54016	516.05695	1500.41589	1199.83850	506.11197	1301.34509	1180.11255	518.15259	1161.50879	1163.96631	553.51550	1033.89380	1189.79541	636.19940	924.15631	1158.79822	588.94421	916.33594	1150.84204	623.05341	860.02008	1652.40564	561.02881	1497.02075	1737.92297	542.79333	1304.79675	1749.81702	555.29236	1157.51453	1763.92712	591.69202	1042.05664	1736.44092	645.14441	919.25104	1773.42102	602.27002	912.44128	1770.44153	643.37964	852.01050	1327.92444	648.41223	998.70679	1584.14282	640.55377	977.23254	1405.81128	435.56213	1035.67737	1520.74219	427.05737	1030.05115	1280.92261	600.51630	683.68262	1317.81921	573.91522	480.98383	1327.66833	520.58270	292.07269	1373.50098	527.15765	71.25836	1427.56616	493.70734	44.30360	1352.20471	681.96552	38.08458	1672.51721	589.14240	674.84613	1665.08984	607.84735	477.00858	1664.02332	470.14847	355.75156	1632.26892	347.63498	207.40424	1568.87244	301.52850	173.17125	1681.51880	422.93164	73.97639	1502.13940	448.86618	1783.78076	-3360.36719	2845.29565	1034.06519						 
